<svg width="1691" height="281" viewBox="0 0 1691 281" fill="none" xmlns="http://www.w3.org/2000/svg">
<path d="M30 245.515V35.4279C110.266 25.8205 209.377 44.7967 207.894 148.595C206.432 250.867 107.99 257.462 30 245.515Z" stroke="#E9ECF5" stroke-width="60" stroke-miterlimit="16" stroke-linecap="round"/>
<path d="M374 4.5H435V277H374V4.5Z" fill="#E9ECF5"/>
<path d="M374 4.5H571V55.5H374V4.5Z" fill="#E9ECF5"/>
<path d="M375 226H574V278H375V226Z" fill="#E9ECF5"/>
<path d="M482 110H558V161H469L482 110Z" fill="#E9ECF5"/>
<path d="M728 187.5C740.333 200.667 776.6 227 823 227C832 226 850.5 227 858 202.5C862.776 186.898 841.333 176.667 833 173C776.5 158 750 143.4 750 143C750 142.5 697.5 107.5 731 43.5004C757.8 -7.69965 844 -2.50004 885.5 16.0003L915.5 32.0003L893 81.5002C880 74.3336 849.8 59.4002 833 57.0002C809.4 53.8002 796.833 56.6669 793.5 58.5002C785.167 62.6669 772.9 75.2002 790.5 96.0002C791.484 97.7217 801.902 103.217 833 114.173C844.053 118.067 861.5 123 877 131C889.5 137.452 907.803 151.88 916 178.5C930.05 224.128 890.625 256 885 260.5C878 265 867 276.5 818.5 279C763 279.001 726.41 253.951 704 237L728 187.5Z" fill="#E9ECF5" stroke="#E9ECF5" stroke-miterlimit="16"/>
<path fill-rule="evenodd" clip-rule="evenodd" d="M1232.06 271.629C1261.44 260.677 1286.34 240.761 1303 214.888L1249.58 188.634C1234.62 207.682 1210.81 220 1184 220C1138.71 220 1102 184.854 1102 141.5C1102 98.1456 1138.71 63 1184 63C1209.07 63 1231.51 73.7685 1246.55 90.7371L1302.78 65.7682C1286.04 39.9418 1261.08 20.0953 1231.67 9.22584C1202.26 -1.64362 1170 -2.94571 1139.77 5.51621C1109.53 13.9781 1082.95 31.7445 1064.05 56.1322C1045.15 80.5199 1034.95 110.205 1035 140.703C1035.05 171.201 1045.33 200.857 1064.3 225.192C1083.28 249.527 1109.9 267.219 1140.17 275.596C1170.43 283.973 1202.69 282.581 1232.06 271.629Z" fill="#E9ECF5"/>
<path d="M1480.5 94H1547.5L1472 281H1404L1480.5 94Z" fill="#E9ECF5"/>
<path d="M1547.5 94H1614.5L1691 281H1623L1547.5 94Z" fill="#E9ECF5"/>
<path d="M1520 3H1582L1614.5 94H1480.5L1520 3Z" fill="#E9ECF5"/>
</svg>
